<svg width="1299" height="744" viewBox="0 0 1299 744" fill="none" xmlns="http://www.w3.org/2000/svg">
<rect x="0.5" y="15.5" width="43" height="43" stroke="#A0A1A7"/>
<rect x="0.5" y="634.5" width="43" height="43" stroke="#A0A1A7"/>
<rect x="1151.5" y="15.5" width="43" height="43" stroke="#A0A1A7"/>
<rect x="1151.5" y="634.5" width="43" height="43" stroke="#A0A1A7"/>
<rect x="50.5" y="15.5" width="43" height="43" stroke="#A0A1A7"/>
<rect x="50.5" y="634.5" width="43" height="43" stroke="#A0A1A7"/>
<rect x="1201.5" y="15.5" width="43" height="43" stroke="#A0A1A7"/>
<rect x="1201.5" y="634.5" width="43" height="43" stroke="#A0A1A7"/>
<rect x="101.5" y="15.5" width="43" height="43" stroke="#A0A1A7"/>
<rect x="101.5" y="634.5" width="43" height="43" stroke="#A0A1A7"/>
<rect x="1251.5" y="15.5" width="43" height="43" stroke="#A0A1A7"/>
<rect x="1251.5" y="634.5" width="43" height="43" stroke="#A0A1A7"/>
<rect x="151.5" y="15.5" width="43" height="43" stroke="#A0A1A7"/>
<rect x="151.5" y="634.5" width="43" height="43" stroke="#A0A1A7"/>
<rect x="201.5" y="15.5" width="43" height="43" stroke="#A0A1A7"/>
<rect x="201.5" y="634.5" width="43" height="43" stroke="#A0A1A7"/>
<rect x="302.5" y="15.5" width="43" height="43" stroke="#A0A1A7"/>
<rect x="302.5" y="634.5" width="43" height="43" stroke="#A0A1A7"/>
<rect x="352.5" y="15.5" width="43" height="43" stroke="#A0A1A7"/>
<rect x="352.5" y="634.5" width="43" height="43" stroke="#A0A1A7"/>
<rect x="402.5" y="15.5" width="43" height="43" stroke="#A0A1A7"/>
<rect x="402.5" y="634.5" width="43" height="43" stroke="#A0A1A7"/>
<rect x="552" y="66" width="44" height="44" fill="black"/>
<rect x="452.5" y="634.5" width="43" height="43" stroke="#A0A1A7"/>
<rect x="503.5" y="15.5" width="43" height="43" stroke="#A0A1A7"/>
<rect x="503.5" y="634.5" width="43" height="43" stroke="#A0A1A7"/>
<rect x="704" y="118" width="43" height="44" fill="#CB343F"/>
<rect x="553.5" y="634.5" width="42" height="43" fill="black" stroke="#A0A1A7"/>
<rect x="603.5" y="15.5" width="42" height="43" stroke="#A0A1A7"/>
<rect x="603.5" y="634.5" width="42" height="43" stroke="#B3B3B3"/>
<rect x="653.5" y="15.5" width="43" height="43" stroke="#A0A1A7"/>
<rect x="653" y="634" width="44" height="44" fill="#CB343F"/>
<rect x="553.5" y="15.5" width="42" height="43" stroke="#A0A1A7"/>
<rect x="704.5" y="634.5" width="42" height="43" stroke="#A0A1A7"/>
<rect x="754.5" y="15.5" width="42" height="43" stroke="#A0A1A7"/>
<rect x="754.5" y="634.5" width="42" height="43" stroke="#A0A1A7"/>
<rect x="803.5" y="15.5" width="43" height="43" stroke="#A0A1A7"/>
<rect x="803.5" y="634.5" width="43" height="43" stroke="#A0A1A7"/>
<rect x="854.5" y="15.5" width="43" height="43" stroke="#A0A1A7"/>
<rect x="854.5" y="634.5" width="43" height="43" stroke="#A0A1A7"/>
<rect x="0.5" y="66.5" width="43" height="43" stroke="#A0A1A7"/>
<rect x="0.5" y="685.5" width="43" height="43" stroke="#A0A1A7"/>
<rect x="1151.5" y="66.5" width="43" height="43" stroke="#A0A1A7"/>
<rect x="1151.5" y="685.5" width="43" height="43" stroke="#A0A1A7"/>
<rect x="0.5" y="118.5" width="43" height="43" stroke="#A0A1A7"/>
<rect x="953.5" y="118.5" width="43" height="43" stroke="#A0A1A7"/>
<rect y="325" width="44" height="44" fill="black"/>
<rect y="325" width="44" height="44" stroke="black"/>
<rect x="1151.5" y="169.5" width="43" height="43" stroke="#A0A1A7"/>
<rect x="0.5" y="479.5" width="43" height="43" stroke="#A0A1A7"/>
<rect x="1201" y="325" width="44" height="44" fill="#CB343F"/>
<rect x="1201" y="325" width="44" height="44" stroke="black"/>
<rect x="0.5" y="221.5" width="43" height="43" stroke="#A0A1A7"/>
<rect x="953.5" y="221.5" width="43" height="43" stroke="#A0A1A7"/>
<rect x="0.5" y="531.5" width="43" height="43" stroke="#A0A1A7"/>
<rect x="1151.5" y="531.5" width="43" height="43" stroke="#A0A1A7"/>
<rect y="427" width="44" height="45" fill="black"/>
<rect y="427" width="44" height="45" stroke="black"/>
<rect x="1151.5" y="272.5" width="43" height="44" stroke="#A0A1A7"/>
<rect x="0.5" y="169.5" width="43" height="43" stroke="#A0A1A7"/>
<rect x="1151.5" y="479.5" width="43" height="43" stroke="#A0A1A7"/>
<rect x="0.5" y="272.5" width="43" height="43" stroke="#A0A1A7"/>
<rect x="1151.5" y="583.5" width="43" height="43" stroke="#A0A1A7"/>
<rect x="0.5" y="583.5" width="43" height="43" stroke="#A0A1A7"/>
<rect x="1201.5" y="583.5" width="43" height="43" stroke="#A0A1A7"/>
<rect x="50.5" y="66.5" width="43" height="43" stroke="#A0A1A7"/>
<rect x="50.5" y="685.5" width="43" height="43" stroke="#A0A1A7"/>
<rect x="1201.5" y="66.5" width="43" height="43" stroke="#A0A1A7"/>
<rect x="1201.5" y="685.5" width="43" height="43" stroke="#A0A1A7"/>
<rect x="50.5" y="118.5" width="43" height="43" stroke="#A0A1A7"/>
<rect x="1201.5" y="118.5" width="43" height="43" stroke="#A0A1A7"/>
<rect x="50.5" y="169.5" width="43" height="43" rx="7.5" stroke="#A0A1A7"/>
<rect x="1003.5" y="169.5" width="43" height="43" rx="7.5" stroke="#A0A1A7"/>
<rect x="50.5" y="479.5" width="43" height="43" rx="7.5" stroke="#A0A1A7"/>
<rect x="1251.5" y="479.5" width="43" height="43" rx="7.5" stroke="#A0A1A7"/>
<rect x="50" y="376" width="44" height="44" fill="#CB343F"/>
<rect x="50" y="376" width="44" height="44" stroke="#CB343F"/>
<rect x="1201.5" y="221.5" width="43" height="43" stroke="#A0A1A7"/>
<rect x="50.5" y="531.5" width="43" height="43" stroke="#A0A1A7"/>
<rect x="1251" y="376" width="44" height="44" fill="#CB343F"/>
<rect x="1251" y="376" width="44" height="44" stroke="#CB343F"/>
<rect x="50.5" y="272.5" width="43" height="44" stroke="#A0A1A7"/>
<rect x="1201.5" y="272.5" width="43" height="44" stroke="#A0A1A7"/>
<rect x="50.5" y="325.5" width="43" height="43" stroke="#A0A1A7"/>
<rect x="1151.5" y="325.5" width="43" height="43" stroke="#A0A1A7"/>
<rect x="50.5" y="428.5" width="43" height="43" stroke="#A0A1A7"/>
<rect x="1201" y="428" width="44" height="44" fill="#CB343F"/>
<rect x="1201" y="428" width="44" height="44" stroke="#A0A1A7"/>
<rect x="50.5" y="583.5" width="43" height="43" stroke="#A0A1A7"/>
<rect x="1151.5" y="428.5" width="43" height="43" stroke="#A0A1A7"/>
<rect x="101.5" y="118.5" width="43" height="43" stroke="#A0A1A7"/>
<rect x="1251.5" y="118.5" width="43" height="43" stroke="#A0A1A7"/>
<rect x="101" y="428" width="44" height="44" fill="#CB343F"/>
<rect x="101" y="428" width="44" height="44" stroke="#CB343F"/>
<rect x="1251.5" y="169.5" width="43" height="43" stroke="#A0A1A7"/>
<rect x="101.5" y="479.5" width="43" height="43" stroke="#A0A1A7"/>
<rect x="1151" y="376" width="44" height="44" fill="#CB343F"/>
<rect x="1151" y="376" width="44" height="44" stroke="#CB343F"/>
<rect x="101.5" y="221.5" width="43" height="43" rx="21.5" stroke="#A0A1A7"/>
<rect x="1251.5" y="221.5" width="43" height="43" rx="21.5" stroke="#A0A1A7"/>
<rect x="101.5" y="531.5" width="43" height="43" rx="21.5" stroke="#A0A1A7"/>
<rect x="1201.5" y="479.5" width="43" height="43" rx="21.5" stroke="#A0A1A7"/>
<rect x="101" y="324" width="44" height="45" fill="#CB343F"/>
<rect x="101" y="324" width="44" height="45" stroke="#CB343F"/>
<rect x="1251.5" y="272.5" width="43" height="44" stroke="#A0A1A7"/>
<rect x="101.5" y="272.5" width="43" height="43" stroke="#A0A1A7"/>
<rect x="1251.5" y="325.5" width="43" height="43" stroke="#A0A1A7"/>
<rect x="101.5" y="377.5" width="43" height="42" rx="6.5" stroke="#A0A1A7"/>
<rect x="1201.5" y="377.5" width="43" height="42" rx="6.5" stroke="#A0A1A7"/>
<rect x="101.5" y="169.5" width="43" height="43" stroke="#A0A1A7"/>
<rect x="1251.5" y="428.5" width="43" height="43" stroke="#A0A1A7"/>
<rect x="101.5" y="583.5" width="43" height="43" stroke="#A0A1A7"/>
<rect x="1251.5" y="583.5" width="43" height="43" stroke="#A0A1A7"/>
<rect x="151.5" y="66.5" width="43" height="43" stroke="#A0A1A7"/>
<rect x="151.5" y="685.5" width="43" height="43" stroke="#A0A1A7"/>
<rect x="151.5" y="118.5" width="43" height="43" stroke="#A0A1A7"/>
<rect x="151.5" y="169.5" width="43" height="43" stroke="#A0A1A7"/>
<rect x="151.5" y="479.5" width="43" height="43" stroke="#A0A1A7"/>
<rect x="151" y="379" width="44" height="44" fill="#CB343F"/>
<rect x="151" y="379" width="44" height="44" stroke="#CB343F"/>
<rect x="151.5" y="531.5" width="43" height="43" stroke="#A0A1A7"/>
<rect x="151.5" y="272.5" width="43" height="44" stroke="#A0A1A7"/>
<rect x="151.5" y="325.5" width="43" height="43" stroke="#A0A1A7"/>
<rect x="151.5" y="428.5" width="43" height="43" stroke="#A0A1A7"/>
<rect x="151.5" y="583.5" width="43" height="43" stroke="#A0A1A7"/>
<rect x="201.5" y="66.5" width="43" height="43" stroke="#A0A1A7"/>
<rect x="201.5" y="685.5" width="43" height="43" stroke="#A0A1A7"/>
<rect x="201.5" y="169.5" width="43" height="43" stroke="#A0A1A7"/>
<rect x="201.5" y="479.5" width="43" height="43" stroke="#A0A1A7"/>
<rect x="201.5" y="221.5" width="43" height="43" stroke="#A0A1A7"/>
<rect x="201.5" y="531.5" width="43" height="43" stroke="#A0A1A7"/>
<rect x="201.5" y="272.5" width="43" height="44" stroke="#A0A1A7"/>
<rect x="201.5" y="325.5" width="43" height="43" stroke="#A0A1A7"/>
<rect x="201.5" y="377.5" width="43" height="42" stroke="#A0A1A7"/>
<rect x="201.5" y="428.5" width="43" height="43" stroke="#A0A1A7"/>
<rect x="201.5" y="583.5" width="43" height="43" stroke="#A0A1A7"/>
<rect x="251.5" y="66.5" width="43" height="43" stroke="#A0A1A7"/>
<rect x="251.5" y="685.5" width="43" height="43" stroke="#A0A1A7"/>
<rect x="251.5" y="118.5" width="43" height="43" rx="5.5" stroke="#A0A1A7"/>
<rect x="251.5" y="169.5" width="43" height="43" stroke="#A0A1A7"/>
<rect x="251.5" y="479.5" width="43" height="43" stroke="#A0A1A7"/>
<rect x="251.5" y="221.5" width="43" height="43" stroke="#A0A1A7"/>
<rect x="251.5" y="531.5" width="43" height="43" stroke="#A0A1A7"/>
<rect x="251.5" y="272.5" width="43" height="44" stroke="#A0A1A7"/>
<rect x="251.5" y="325.5" width="43" height="43" stroke="#A0A1A7"/>
<rect x="251.5" y="377.5" width="43" height="42" stroke="#A0A1A7"/>
<rect x="302.5" y="66.5" width="43" height="43" stroke="#A0A1A7"/>
<rect x="302.5" y="685.5" width="43" height="43" stroke="#A0A1A7"/>
<rect x="302.5" y="169.5" width="43" height="43" stroke="#A0A1A7"/>
<rect x="302.5" y="479.5" width="43" height="43" stroke="#A0A1A7"/>
<rect x="302.5" y="221.5" width="43" height="43" stroke="#A0A1A7"/>
<rect x="302.5" y="531.5" width="43" height="43" stroke="#A0A1A7"/>
<rect x="302.5" y="272.5" width="43" height="44" stroke="#A0A1A7"/>
<rect x="302.5" y="325.5" width="43" height="43" stroke="#A0A1A7"/>
<rect x="302.5" y="377.5" width="43" height="42" stroke="#A0A1A7"/>
<rect x="302.5" y="428.5" width="43" height="43" stroke="#A0A1A7"/>
<rect x="302.5" y="583.5" width="43" height="43" stroke="#A0A1A7"/>
<rect x="352.5" y="66.5" width="43" height="43" stroke="#A0A1A7"/>
<rect x="352.5" y="685.5" width="43" height="43" stroke="#A0A1A7"/>
<rect x="352.5" y="118.5" width="43" height="43" stroke="#A0A1A7"/>
<rect x="352.5" y="169.5" width="43" height="43" stroke="#A0A1A7"/>
<rect x="352.5" y="479.5" width="43" height="43" stroke="#A0A1A7"/>
<rect x="352.5" y="221.5" width="43" height="43" stroke="#A0A1A7"/>
<rect x="352.5" y="531.5" width="43" height="43" stroke="#A0A1A7"/>
<rect x="352.5" y="272.5" width="43" height="44" stroke="#A0A1A7"/>
<rect x="352.5" y="325.5" width="43" height="43" stroke="#A0A1A7"/>
<rect x="352.5" y="428.5" width="43" height="43" stroke="#A0A1A7"/>
<rect x="352.5" y="583.5" width="43" height="43" stroke="#A0A1A7"/>
<rect x="402.5" y="66.5" width="43" height="43" rx="21.5" stroke="#A0A1A7"/>
<rect x="402.5" y="685.5" width="43" height="43" rx="21.5" stroke="#A0A1A7"/>
<rect x="402.5" y="118.5" width="43" height="43" stroke="#A0A1A7"/>
<rect x="402.5" y="169.5" width="43" height="43" stroke="#A0A1A7"/>
<rect x="402.5" y="479.5" width="43" height="43" stroke="#A0A1A7"/>
<rect x="402.5" y="221.5" width="43" height="43" stroke="#A0A1A7"/>
<rect x="402.5" y="531.5" width="43" height="43" stroke="#A0A1A7"/>
<rect x="402.5" y="272.5" width="43" height="44" stroke="#A0A1A7"/>
<rect x="402.5" y="325.5" width="43" height="43" stroke="#A0A1A7"/>
<rect x="402.5" y="377.5" width="43" height="42" stroke="#A0A1A7"/>
<rect x="402.5" y="428.5" width="43" height="43" stroke="#A0A1A7"/>
<rect x="402.5" y="583.5" width="43" height="43" stroke="#A0A1A7"/>
<rect x="452.5" y="15.5" width="43" height="43" stroke="#A0A1A7"/>
<rect x="452.5" y="685.5" width="43" height="43" stroke="#A0A1A7"/>
<rect x="553" y="169" width="44" height="44" fill="black"/>
<rect x="452.5" y="118.5" width="43" height="43" stroke="#A0A1A7"/>
<rect x="452.5" y="479.5" width="43" height="43" stroke="#A0A1A7"/>
<rect x="452.5" y="221.5" width="43" height="43" stroke="#A0A1A7"/>
<rect x="452.5" y="531.5" width="43" height="43" stroke="#A0A1A7"/>
<rect x="452.5" y="272.5" width="43" height="44" stroke="#A0A1A7"/>
<rect x="452.5" y="377.5" width="43" height="42" stroke="#A0A1A7"/>
<rect x="452.5" y="428.5" width="43" height="43" stroke="#A0A1A7"/>
<rect x="452.5" y="583.5" width="43" height="43" stroke="#A0A1A7"/>
<rect x="653" y="169" width="44" height="44" fill="#CB343F"/>
<rect x="503.5" y="685.5" width="43" height="43" stroke="#A0A1A7"/>
<rect x="503.5" y="118.5" width="43" height="43" stroke="#A0A1A7"/>
<rect x="452.5" y="66.5" width="43" height="43" stroke="#A0A1A7"/>
<rect x="503.5" y="479.5" width="43" height="43" stroke="#A0A1A7"/>
<rect x="503.5" y="221.5" width="43" height="43" stroke="#A0A1A7"/>
<rect x="503.5" y="531.5" width="43" height="43" stroke="#A0A1A7"/>
<rect x="503.5" y="272.5" width="43" height="44" stroke="#A0A1A7"/>
<rect x="503.5" y="325.5" width="43" height="43" stroke="#A0A1A7"/>
<rect x="503.5" y="377.5" width="43" height="42" stroke="#A0A1A7"/>
<rect x="503.5" y="428.5" width="43" height="43" stroke="#A0A1A7"/>
<rect x="503.5" y="583.5" width="43" height="43" stroke="#A0A1A7"/>
<rect x="603" y="118" width="43" height="44" fill="#CB343F"/>
<rect x="503.5" y="169.5" width="42" height="43" stroke="#A0A1A7"/>
<rect x="553.5" y="479.5" width="42" height="43" stroke="#A0A1A7"/>
<rect x="553.5" y="221.5" width="42" height="43" stroke="#A0A1A7"/>
<rect x="553.5" y="531.5" width="42" height="43" fill="black" stroke="#A0A1A7"/>
<rect x="553.5" y="272.5" width="42" height="44" stroke="#A0A1A7"/>
<rect x="553.5" y="325.5" width="42" height="43" stroke="#A0A1A7"/>
<rect x="553.5" y="428.5" width="42" height="43" stroke="#A0A1A7"/>
<rect x="553.5" y="583.5" width="42" height="43" stroke="#A0A1A7"/>
<rect x="654" y="66" width="43" height="44" fill="#CB343F"/>
<rect x="603.5" y="685.5" width="42" height="43" stroke="#A0A1A7"/>
<rect x="553.5" y="118.5" width="42" height="43" stroke="#A0A1A7"/>
<rect x="603.5" y="169.5" width="42" height="43" stroke="#A0A1A7"/>
<rect x="603.5" y="479.5" width="42" height="43" stroke="#A0A1A7"/>
<rect x="603.5" y="221.5" width="42" height="43" stroke="#A0A1A7"/>
<rect x="603.5" y="531.5" width="42" height="43" stroke="#B3B3B3"/>
<rect x="603.5" y="272.5" width="42" height="44" stroke="#A0A1A7"/>
<rect x="603.5" y="325.5" width="42" height="43" stroke="#A0A1A7"/>
<rect x="603.5" y="377.5" width="42" height="42" stroke="#A0A1A7"/>
<rect x="603.5" y="428.5" width="42" height="43" stroke="#CA323D"/>
<rect x="603" y="583" width="43" height="44" fill="#CB343F"/>
<rect x="603.5" y="66.5" width="43" height="43" stroke="#A0A1A7"/>
<rect x="653.5" y="685.5" width="43" height="43" stroke="#A0A1A7"/>
<rect x="452.5" y="169.5" width="43" height="43" stroke="#A0A1A7"/>
<rect x="653.5" y="479.5" width="43" height="43" stroke="#A0A1A7"/>
<rect x="653.5" y="221.5" width="43" height="43" stroke="#A0A1A7"/>
<rect x="653" y="531" width="44" height="44" fill="#CB343F"/>
<rect x="653.5" y="272.5" width="43" height="44" stroke="#A0A1A7"/>
<rect x="653.5" y="325.5" width="43" height="43" stroke="#A0A1A7"/>
<rect x="653.5" y="377.5" width="43" height="42" stroke="#A0A1A7"/>
<rect x="653.5" y="428.5" width="43" height="43" stroke="#A0A1A7"/>
<rect x="653.5" y="583.5" width="43" height="43" stroke="#A0A1A7"/>
<rect x="704.5" y="15.5" width="42" height="43" stroke="#A0A1A7"/>
<rect x="704.5" y="169.5" width="42" height="43" stroke="#A0A1A7"/>
<rect x="704.5" y="479.5" width="42" height="43" stroke="#A0A1A7"/>
<rect x="704.5" y="221.5" width="42" height="43" stroke="#A0A1A7"/>
<rect x="704.5" y="531.5" width="42" height="43" stroke="#A0A1A7"/>
<rect x="704.5" y="272.5" width="42" height="44" stroke="black"/>
<rect x="704.5" y="325.5" width="42" height="43" stroke="#A0A1A7"/>
<rect x="704.5" y="428.5" width="42" height="43" stroke="#A0A1A7"/>
<rect x="704" y="583" width="43" height="44" fill="#CB343F"/>
<rect x="754.5" y="66.5" width="42" height="43" stroke="#A0A1A7"/>
<rect x="754.5" y="685.5" width="42" height="43" stroke="#A0A1A7"/>
<rect x="754.5" y="118.5" width="42" height="43" stroke="#A0A1A7"/>
<rect x="754.5" y="221.5" width="42" height="43" stroke="#A0A1A7"/>
<rect x="754.5" y="531.5" width="42" height="43" stroke="#A0A1A7"/>
<rect x="754.5" y="325.5" width="42" height="43" stroke="#A0A1A7"/>
<rect x="754.5" y="377.5" width="42" height="42" stroke="#A0A1A7"/>
<rect x="754.5" y="428.5" width="42" height="43" stroke="#A0A1A7"/>
<rect x="754.5" y="583.5" width="42" height="43" stroke="#A0A1A7"/>
<rect x="803.5" y="66.5" width="43" height="43" stroke="#A0A1A7"/>
<rect x="803.5" y="685.5" width="43" height="43" stroke="#A0A1A7"/>
<rect x="803.5" y="169.5" width="43" height="43" stroke="#A0A1A7"/>
<rect x="803.5" y="479.5" width="43" height="43" stroke="#A0A1A7"/>
<rect x="803.5" y="221.5" width="43" height="43" stroke="#A0A1A7"/>
<rect x="803.5" y="531.5" width="43" height="43" stroke="#A0A1A7"/>
<rect x="803.5" y="272.5" width="43" height="44" stroke="#CB343F"/>
<rect x="803.5" y="325.5" width="43" height="43" stroke="#A0A1A7"/>
<rect x="803.5" y="377.5" width="43" height="42" stroke="#A0A1A7"/>
<rect x="803.5" y="428.5" width="43" height="43" stroke="#A0A1A7"/>
<rect x="803.5" y="583.5" width="43" height="43" stroke="#A0A1A7"/>
<rect x="854.5" y="66.5" width="43" height="43" stroke="#A0A1A7"/>
<rect x="854.5" y="685.5" width="43" height="43" stroke="#A0A1A7"/>
<rect x="854.5" y="118.5" width="43" height="43" stroke="#A0A1A7"/>
<rect x="854.5" y="169.5" width="43" height="43" stroke="#A0A1A7"/>
<rect x="854.5" y="479.5" width="43" height="43" stroke="#A0A1A7"/>
<rect x="854.5" y="221.5" width="43" height="43" stroke="#A0A1A7"/>
<rect x="854.5" y="531.5" width="43" height="43" stroke="#A0A1A7"/>
<rect x="854.5" y="272.5" width="43" height="44" stroke="#A0A1A7"/>
<rect x="854.5" y="325.5" width="43" height="43" stroke="#A0A1A7"/>
<rect x="854.5" y="428.5" width="43" height="43" stroke="#A0A1A7"/>
<rect x="854.5" y="583.5" width="43" height="43" stroke="#A0A1A7"/>
<path d="M294.775 15.25L273.5 57.8803L252.225 15.25L294.775 15.25Z" stroke="#A0A1A7"/>
<path d="M294.775 634.25L273.5 676.88L252.225 634.25H294.775Z" stroke="#A0A1A7"/>
<path d="M345 161.769L303.105 140.5L345 119.231V161.769Z" stroke="#A0A1A7"/>
<path d="M43 418.843L1.12214 398L43 377.157V418.843Z" stroke="#A0A1A7"/>
<path d="M194 263.843L152.122 243L194 222.157V263.843Z" stroke="#A0A1A7"/>
<path d="M495.75 367.775L453.12 346.5L495.75 325.225V367.775Z" stroke="black"/>
<path d="M553 377.157L594.878 398L553 418.843V377.157Z" stroke="#A0A1A7"/>
<path d="M704 377.157L745.878 398L704 418.843V377.157Z" stroke="#CB343F"/>
<path d="M294.775 428.25L273.5 470.88L252.225 428.25H294.775Z" stroke="#A0A1A7"/>
<path d="M294.775 583.25L273.5 625.88L252.225 583.25H294.775Z" stroke="#A0A1A7"/>
<path d="M896.769 377L875.5 418.895L854.231 377H896.769Z" stroke="#A0A1A7"/>
<path d="M93.7691 222L72.5 263.895L51.2309 222H93.7691Z" stroke="#A0A1A7"/>
<path d="M1244.77 532L1223.5 573.895L1202.23 532H1244.77Z" stroke="#A0A1A7"/>
<path d="M101.225 109.75L122.5 67.1197L143.775 109.75H101.225Z" stroke="#A0A1A7"/>
<path d="M101.225 728.75L122.5 686.12L143.775 728.75H101.225Z" stroke="#A0A1A7"/>
<path d="M1252.22 109.75L1273.5 67.1197L1294.78 109.75H1252.22Z" stroke="#A0A1A7"/>
<path d="M1252.22 728.75L1273.5 686.12L1294.78 728.75H1252.22Z" stroke="#A0A1A7"/>
<path d="M202.231 161L223.5 119.105L244.769 161H202.231Z" stroke="#A0A1A7"/>
<path d="M654.157 161L675 119.122L695.843 161H654.157Z" stroke="#A0A1A7"/>
<path d="M805.157 161L826 119.122L846.843 161H805.157Z" stroke="#A0A1A7"/>
<path d="M754.225 212.75L775.5 170.12L796.775 212.75H754.225Z" stroke="#A0A1A7"/>
<path d="M754.225 522.75L775.5 480.12L796.775 522.75H754.225Z" stroke="#A0A1A7"/>
<path d="M509.683 72.8232L524.5 66.5431L539.317 72.8232L545.461 88L539.317 103.177L524.5 109.457L509.683 103.177L503.539 88L509.683 72.8232Z" stroke="#A0A1A7"/>
<path d="M559.683 691.823L574.5 685.543L589.317 691.823L595.461 707L589.317 722.177L574.5 728.457L559.683 722.177L553.539 707L559.683 691.823Z" stroke="#A0A1A7"/>
<path d="M710.683 72.8232L725.5 66.5431L740.317 72.8232L746.461 88L740.317 103.177L725.5 109.457L710.683 103.177L704.539 88L710.683 72.8232Z" stroke="#A0A1A7"/>
<path d="M710.683 691.823L725.5 685.543L740.317 691.823L746.461 707L740.317 722.177L725.5 728.457L710.683 722.177L704.539 707L710.683 691.823Z" stroke="#A0A1A7"/>
<path d="M760.686 278.967L775.5 272.545L790.314 278.967L796.462 294.5L790.314 310.033L775.5 316.455L760.686 310.033L754.538 294.5L760.686 278.967Z" stroke="#A0A1A7"/>
<path d="M358.823 383.683L374 377.539L389.177 383.683L395.457 398.5L389.177 413.317L374 419.461L358.823 413.317L352.543 398.5L358.823 383.683Z" stroke="#A0A1A7"/>
<rect x="904.5" y="14.5" width="42" height="43" stroke="#A0A1A7"/>
<rect x="904.5" y="633.5" width="42" height="43" stroke="#A0A1A7"/>
<rect x="953.5" y="14.5" width="42" height="43" stroke="#A0A1A7"/>
<rect x="953.5" y="633.5" width="42" height="43" stroke="#A0A1A7"/>
<rect x="1003.5" y="14.5" width="42" height="43" stroke="#A0A1A7"/>
<rect x="1003.5" y="633.5" width="42" height="43" stroke="#A0A1A7"/>
<rect x="1052.5" y="14.5" width="42" height="43" stroke="#A0A1A7"/>
<rect x="1052.5" y="633.5" width="42" height="43" stroke="#A0A1A7"/>
<rect x="1101.5" y="14.5" width="43" height="43" stroke="#A0A1A7"/>
<rect x="1101.5" y="633.5" width="43" height="43" stroke="#A0A1A7"/>
<rect x="904.5" y="66.5" width="42" height="43" stroke="#A0A1A7"/>
<rect x="904.5" y="685.5" width="42" height="43" stroke="#A0A1A7"/>
<rect x="904.5" y="118.5" width="42" height="43" stroke="#A0A1A7"/>
<rect x="904.5" y="169.5" width="42" height="43" stroke="#A0A1A7"/>
<rect x="904.5" y="479.5" width="42" height="43" stroke="#A0A1A7"/>
<rect x="904.5" y="221.5" width="42" height="43" stroke="#A0A1A7"/>
<rect x="904.5" y="531.5" width="42" height="42" stroke="#A0A1A7"/>
<rect x="904.5" y="273.5" width="42" height="43" stroke="black"/>
<rect x="904.5" y="325.5" width="42" height="43" stroke="#A0A1A7"/>
<rect x="904.5" y="428.5" width="42" height="43" stroke="#A0A1A7"/>
<rect x="904.5" y="583.5" width="42" height="43" stroke="#A0A1A7"/>
<rect x="953.5" y="66.5" width="42" height="43" stroke="#A0A1A7"/>
<rect x="953.5" y="685.5" width="42" height="43" stroke="#A0A1A7"/>
<rect x="1053.5" y="118.5" width="42" height="43" stroke="#A0A1A7"/>
<rect x="953.5" y="169.5" width="42" height="43" rx="7.5" stroke="#A0A1A7"/>
<rect x="953.5" y="479.5" width="42" height="43" rx="7.5" stroke="#A0A1A7"/>
<rect x="1053.5" y="221.5" width="42" height="43" stroke="#A0A1A7"/>
<rect x="953.5" y="531.5" width="42" height="42" stroke="#A0A1A7"/>
<rect x="953.5" y="273.5" width="42" height="43" stroke="#A0A1A7"/>
<rect x="953.5" y="325.5" width="42" height="43" stroke="#A0A1A7"/>
<rect x="953.5" y="428.5" width="42" height="43" stroke="#A0A1A7"/>
<rect x="953.5" y="583.5" width="42" height="43" stroke="#A0A1A7"/>
<rect x="1003.5" y="118.5" width="42" height="43" stroke="#A0A1A7"/>
<rect x="1102.5" y="169.5" width="42" height="43" stroke="#A0A1A7"/>
<rect x="1003.5" y="479.5" width="42" height="43" stroke="#A0A1A7"/>
<rect x="1003.5" y="221.5" width="42" height="43" rx="21" stroke="#A0A1A7"/>
<rect x="1003.5" y="531.5" width="42" height="42" rx="21" stroke="#A0A1A7"/>
<rect x="1003.5" y="273.5" width="42" height="43" stroke="#A0A1A7"/>
<rect x="1003.5" y="325.5" width="42" height="43" stroke="#A0A1A7"/>
<rect x="1003.5" y="376.5" width="42" height="43" rx="6.5" stroke="#A0A1A7"/>
<rect x="1003.5" y="428.5" width="42" height="43" stroke="#A0A1A7"/>
<rect x="1003.5" y="583.5" width="42" height="43" stroke="#A0A1A7"/>
<rect x="1052.5" y="66.5" width="42" height="43" stroke="#A0A1A7"/>
<rect x="1052.5" y="685.5" width="42" height="43" stroke="#A0A1A7"/>
<rect x="1152.5" y="118.5" width="42" height="43" stroke="#A0A1A7"/>
<rect x="1052.5" y="169.5" width="42" height="43" stroke="#A0A1A7"/>
<rect x="1052.5" y="583.5" width="42" height="43" stroke="#A0A1A7"/>
<rect x="1152.5" y="221.5" width="42" height="43" stroke="#A0A1A7"/>
<rect x="1251.5" y="530.5" width="43" height="43" stroke="#A0A1A7"/>
<rect x="1052.5" y="273.5" width="42" height="43" stroke="#A0A1A7"/>
<rect x="1052.5" y="479.5" width="42" height="43" stroke="#A0A1A7"/>
<rect x="1052.5" y="428.5" width="42" height="43" stroke="#A0A1A7"/>
<rect x="1052.5" y="531.5" width="42" height="43" stroke="#A0A1A7"/>
<rect x="1101.5" y="66.5" width="43" height="43" stroke="#A0A1A7"/>
<rect x="1101.5" y="685.5" width="43" height="43" stroke="#A0A1A7"/>
<rect x="1201.5" y="169.5" width="43" height="43" stroke="#A0A1A7"/>
<rect x="1101.5" y="479.5" width="43" height="43" stroke="#A0A1A7"/>
<rect x="1101.5" y="221.5" width="43" height="43" stroke="#A0A1A7"/>
<rect x="1101" y="428" width="44" height="43" fill="black"/>
<rect x="1101.5" y="273.5" width="43" height="43" stroke="#A0A1A7"/>
<rect x="1052.5" y="325.5" width="43" height="43" stroke="#A0A1A7"/>
<rect x="1101.5" y="376.5" width="43" height="43" stroke="#A0A1A7"/>
<rect x="1101.5" y="531.5" width="43" height="43" stroke="#A0A1A7"/>
<rect x="1101" y="325" width="44" height="44" fill="black"/>
<rect x="1101.5" y="583.5" width="43" height="43" stroke="#A0A1A7"/>
<path d="M946.25 418.763L905.089 397.5L946.25 376.237V418.763Z" stroke="#A0A1A7"/>
<path d="M1094.25 418.763L1053.09 397.5L1094.25 376.237V418.763Z" stroke="#A0A1A7"/>
<path d="M995.843 377L975 418.878L954.157 377H995.843Z" stroke="#A0A1A7"/>
<path d="M1003.15 109.75L1024 67.1377L1044.85 109.75H1003.15Z" stroke="#A0A1A7"/>
<path d="M1003.15 728.75L1024 686.138L1044.85 728.75H1003.15Z" stroke="#A0A1A7"/>
<path d="M1102.08 161L1122.5 119.141L1142.92 161H1102.08Z" stroke="#A0A1A7"/>
</svg>
