<svg width="157" height="39" viewBox="0 0 157 39" fill="none" xmlns="http://www.w3.org/2000/svg">
<path d="M12.3682 25.1005H0V37.524H12.3682V25.1005Z" fill="white"/>
<path d="M12.3682 0.25354H0V12.677H12.3682V0.25354Z" fill="white"/>
<path d="M24.7363 0.25354V37.524H37.1045V0.25354H24.7363ZM37.1045 25.1005H24.7363V12.677H37.1045V25.1005Z" fill="#CB333E"/>
<path d="M12.3682 12.677V25.1005H24.7363V12.677H37.1045V25.1005H49.4727V12.677H12.3682Z" fill="#CB333E"/>
<path d="M76.2283 14.7053H66.1318V10.9022H75.9759V7.85975H66.1318V4.05665H76.2283V0.76062H62.0933V18.0014H76.2283V14.7053Z" fill="white"/>
<path d="M114.09 0.76062H110.051V10.6487C110.051 11.9164 109.799 13.1841 109.042 13.9447C108.284 14.7053 107.275 15.2124 106.013 15.2124C104.751 15.2124 103.741 14.7053 102.984 13.9447C102.227 13.1841 101.974 12.1699 101.974 10.6487V0.76062H97.9355V10.6487C97.9355 13.1841 98.6928 15.2124 99.9548 16.4801C101.469 17.7478 103.489 18.5084 106.013 18.5084C108.789 18.5084 110.809 17.7478 112.071 16.4801C113.585 15.2124 114.09 13.1841 114.09 10.6487V0.76062Z" fill="white"/>
<path d="M119.896 6.08496H115.857V17.7478H119.896V6.08496Z" fill="white"/>
<path d="M119.896 0.76062H115.857V4.81727H119.896V0.76062Z" fill="#CB333E"/>
<path d="M121.41 4.31019H127.973V18.0014H132.011V4.31019H138.321V0.76062H121.41V4.31019Z" fill="white"/>
<path d="M152.709 0.76062L148.165 8.36683H147.913L143.37 0.76062H139.079L146.146 12.4235V18.0014H150.185V12.4235L157 0.76062H152.709Z" fill="white"/>
<path d="M75.9759 22.058C74.9663 21.0439 73.1994 20.5368 70.9277 20.5368H62.0933V37.524H66.1318V33.2138H70.9277C73.1994 33.2138 74.9663 32.7067 76.2283 31.6926C77.4904 30.6784 77.9952 29.1572 77.9952 27.1289C77.9952 24.847 77.238 23.3257 75.9759 22.058ZM72.947 28.9036C72.4421 29.4107 71.6849 29.6643 70.6753 29.6643H66.1318V24.0864H70.6753C71.6849 24.0864 72.4421 24.3399 72.947 24.847C73.4518 25.3541 73.7042 26.1147 73.7042 26.8753C73.9566 27.8895 73.4518 28.3966 72.947 28.9036Z" fill="white"/>
<path d="M83.5481 20.5368H79.5095V37.7776H93.1398V34.228H83.5481V20.5368Z" fill="white"/>
<path d="M107.023 30.4249C107.023 31.6926 106.77 32.9603 106.013 33.7209C105.256 34.4815 104.246 34.9886 102.984 34.9886C101.722 34.9886 100.712 34.4815 99.955 33.7209C99.1977 32.9603 98.9453 31.9461 98.9453 30.4249V20.5368H94.9067V30.6784C94.9067 33.2138 95.664 35.2421 96.926 36.5098C98.4405 37.7776 100.46 38.5382 102.984 38.5382C105.76 38.5382 107.78 37.7776 109.042 36.5098C110.304 34.9886 111.061 33.2138 111.061 30.6784V20.5368H107.023V30.4249Z" fill="white"/>
<path d="M125.196 28.6501C124.439 28.3966 123.177 28.143 121.157 27.6359L119.391 27.3824C117.624 27.1289 116.866 26.3682 116.866 25.3541C116.866 24.5934 117.119 24.0864 117.876 23.8328C118.381 23.5793 119.391 23.3257 120.4 23.3257C122.672 23.3257 124.186 24.0864 124.439 25.8612H127.973C127.973 22.058 125.448 20.0297 120.4 20.0297C118.129 20.0297 116.109 20.5368 114.847 21.2974C113.585 22.3116 112.828 23.5793 112.828 25.1005C112.828 25.8612 112.828 26.3682 113.08 27.1289C113.333 27.6359 113.585 28.143 114.09 28.3966C114.342 28.6501 114.847 29.1572 115.604 29.4107C116.109 29.6643 116.866 29.9178 117.371 29.9178C117.876 30.1713 118.633 30.1713 119.391 30.4249L121.41 30.6784C122.419 30.932 123.177 31.1855 123.682 31.439C124.186 31.6926 124.439 32.1997 124.439 32.7067C124.439 33.4674 124.186 33.9744 123.429 34.228C122.672 34.7351 121.662 34.7351 120.4 34.7351C119.138 34.7351 117.876 34.4815 117.371 33.9744C116.362 33.9744 116.109 33.2138 116.109 32.4532H112.575C112.575 34.4815 113.333 36.0028 114.595 36.7634C115.857 37.7775 117.876 38.2846 120.4 38.2846C122.924 38.2846 124.944 37.7776 126.458 37.0169C127.72 36.0028 128.477 34.7351 128.477 32.9603C128.477 32.7067 128.477 32.7067 128.477 32.7067C128.225 30.6784 127.215 29.4107 125.196 28.6501Z" fill="white"/>
<path d="M86.8295 18.5084C88.3439 18.5084 90.1108 18.0014 91.6253 17.2407L92.8873 18.5084H97.9356L91.1205 12.4235H86.3246L88.8488 14.7053C88.3439 14.9589 87.5867 14.9589 86.8295 14.9589C85.315 14.9589 84.0529 14.4518 83.0433 13.4376C82.0336 12.4235 81.5288 11.1558 81.5288 9.38099C81.5288 7.60621 82.0336 6.33851 83.0433 5.32435C84.0529 4.31019 85.315 3.80311 86.8295 3.80311C88.3439 3.80311 89.606 4.31019 90.6156 5.32435C91.6253 6.33851 92.1301 7.60621 92.1301 9.38099C92.1301 10.3952 91.8777 11.1558 91.6253 11.6629H95.9163C96.1687 10.9022 96.1687 10.1416 96.1687 9.12745C96.1687 6.59205 95.4115 4.31019 93.6446 2.5354C91.8777 0.760621 89.606 0 86.8295 0C84.0529 0 81.7812 0.760621 80.0144 2.5354C78.2475 4.31019 77.4902 6.33851 77.4902 9.12745C77.4902 11.9164 78.2475 13.9447 80.0144 15.7195C81.7812 17.7478 84.0529 18.5084 86.8295 18.5084Z" fill="white"/>
</svg>
