<svg width="34" height="34" viewBox="0 0 34 34" fill="none" xmlns="http://www.w3.org/2000/svg">
<path d="M6.97266 0H27.0273C30.8721 0 34 3.12793 34 6.97266V27.0273C34 30.8721 30.8721 34 27.0273 34H6.97266C3.12793 34 0 30.8721 0 27.0273V6.97266C0 3.12793 3.12793 0 6.97266 0ZM9.11731 9.69531L17.0028 17.5807L24.8882 9.69531H9.11731ZM27.1765 22.4475C27.2506 22.3082 27.293 22.1493 27.293 21.9805V10.6914C27.293 10.5226 27.2506 10.3637 27.1765 10.2244L21.0649 16.3359L27.1765 22.4475ZM24.8882 22.9766L19.6562 17.7446L17.0027 20.3981L14.3465 17.7419L9.1118 22.9766H24.8882ZM6.70703 21.9805C6.70703 22.1493 6.7494 22.3082 6.82351 22.4475L12.9379 16.3332L6.82537 10.2207C6.74993 10.3608 6.70703 10.5211 6.70703 10.6914V21.9805Z" fill="#81848C"/>
</svg>
