<svg width="45" height="35" viewBox="0 0 45 35" fill="none" xmlns="http://www.w3.org/2000/svg">
<g clip-path="url(#clip0_439_22)">
<path d="M29.4391 15.5225L19.7154 10.2021C19.1563 9.89619 18.4955 9.90761 17.9474 10.2323C17.3991 10.5574 17.072 11.1316 17.072 11.7689V22.3184C17.072 22.9527 17.3971 23.5259 17.9417 23.8513C18.2262 24.0212 18.5415 24.1065 18.8575 24.1065C19.1469 24.1065 19.437 24.035 19.704 23.8912L29.428 18.6625C30.0052 18.3519 30.3655 17.7518 30.3682 17.096C30.3706 16.4402 30.0146 15.8375 29.4391 15.5225ZM19.6513 20.9913V13.1068L26.9186 17.0833L19.6513 20.9913Z" fill="#81848C"/>
<path d="M44.3474 8.69132L44.3454 8.67117C44.3081 8.31691 43.9371 5.16578 42.4052 3.56302C40.6345 1.67785 38.6271 1.44883 37.6617 1.33903C37.5818 1.32996 37.5086 1.32157 37.4431 1.31284L37.3662 1.30478C31.5475 0.881671 22.7601 0.823914 22.6721 0.823578L22.6644 0.823242L22.6566 0.823578C22.5687 0.823914 13.7812 0.881671 7.91013 1.30478L7.83256 1.31284C7.7701 1.32123 7.70126 1.32895 7.62638 1.33768C6.67204 1.44783 4.68614 1.67718 2.91045 3.63051C1.45142 5.21615 1.02966 8.29978 0.986338 8.64633L0.981301 8.69132C0.968205 8.83874 0.657593 12.3482 0.657593 15.8714V19.1649C0.657593 22.688 0.968205 26.1975 0.981301 26.3452L0.983651 26.3674C1.02092 26.7159 1.39164 29.8093 2.9165 31.4127C4.58138 33.2348 6.68648 33.4759 7.81879 33.6055C7.99777 33.626 8.1519 33.6435 8.257 33.6619L8.35875 33.676C11.7184 33.9957 22.252 34.1532 22.6986 34.1596L22.712 34.1599L22.7255 34.1596C22.8134 34.1592 31.6006 34.1015 37.4193 33.6784L37.4962 33.6703C37.5697 33.6606 37.6523 33.6518 37.743 33.6424C38.6919 33.5417 40.6671 33.3325 42.4183 31.4057C43.8773 29.8197 44.2994 26.7361 44.3424 26.3899L44.3474 26.3449C44.3605 26.1971 44.6715 22.688 44.6715 19.1649V15.8714C44.6711 12.3482 44.3605 8.83907 44.3474 8.69132ZM42.0919 19.1649C42.0919 22.4258 41.8071 25.7841 41.7802 26.0924C41.6708 26.9416 41.2258 28.8926 40.515 29.6653C39.4189 30.8711 38.293 30.9907 37.471 31.0776C37.3716 31.088 37.2796 31.0981 37.1963 31.1085C31.5683 31.5155 23.1126 31.578 22.7231 31.5803C22.2862 31.5739 11.9068 31.4151 8.64955 31.1125C8.48266 31.0853 8.30234 31.0645 8.11228 31.043C7.1482 30.9326 5.82852 30.7814 4.81375 29.6653L4.78991 29.6397C4.09145 28.9121 3.65928 27.0877 3.54947 26.1024C3.52899 25.8694 3.23685 22.4715 3.23685 19.1649V15.8714C3.23685 12.6141 3.52093 9.25949 3.54847 8.94485C3.67909 7.94451 4.13242 6.11172 4.81375 5.37095C5.94337 4.1285 7.13444 3.99082 7.92221 3.89982C7.99743 3.89109 8.06762 3.88303 8.13242 3.87464C13.8423 3.46564 22.3588 3.40486 22.6644 3.40251C22.9699 3.40452 31.4834 3.46564 37.1426 3.87464C37.2121 3.88337 37.288 3.8921 37.3696 3.9015C38.1798 3.99385 39.4045 4.13354 40.5284 5.33234L40.5388 5.34342C41.2373 6.07109 41.6694 7.92738 41.7792 8.93242C41.7987 9.15237 42.0919 12.5577 42.0919 15.8714V19.1649Z" fill="#81848C"/>
</g>
<defs>
<clipPath id="clip0_439_22">
<rect width="44.0137" height="33.6575" fill="white" transform="translate(0.657593 0.671387)"/>
</clipPath>
</defs>
</svg>
